<?xml version="1.0" encoding="UTF-8"?>
<svg xmlns="http://www.w3.org/2000/svg" xmlns:xlink="http://www.w3.org/1999/xlink" width="32px" height="738px" viewBox="0 0 32 30" version="1.1">
<defs>
<filter id="alpha" filterUnits="objectBoundingBox" x="0%" y="0%" width="100%" height="100%">
  <feColorMatrix type="matrix" in="SourceGraphic" values="0 0 0 0 1 0 0 0 0 1 0 0 0 0 1 0 0 0 1 0"/>
</filter>
<mask id="mask0">
  <g filter="url(#alpha)">
<rect x="0" y="0" width="32" height="30" style="fill:rgb(0%,0%,0%);fill-opacity:0.996078;stroke:none;"/>
  </g>
</mask>
<clipPath id="clip1">
  <rect x="0" y="0" width="32" height="30"/>
</clipPath>
<g id="surface5" clip-path="url(#clip1)">
<path style=" stroke:none;fill-rule:evenodd;fill:rgb(18.823529%,55.294118%,81.960784%);fill-opacity:1;" d="M 15.503906 -0.0195312 C 16.660156 -0.0195312 17.816406 -0.0195312 18.972656 -0.0195312 C 20.777344 0.0078125 22.566406 0.21875 24.339844 0.609375 C 25.6875 0.902344 26.851562 1.519531 27.828125 2.460938 C 28.636719 3.363281 29.042969 4.417969 29.046875 5.628906 C 28.285156 11.125 26.839844 16.433594 24.710938 21.566406 C 27.132812 21.605469 29.558594 21.621094 31.980469 21.605469 C 31.980469 21.621094 31.980469 21.632812 31.980469 21.644531 C 31.4375 23.332031 30.914062 25.023438 30.410156 26.726562 C 26.941406 26.722656 23.472656 26.726562 20.003906 26.746094 C 18.113281 26.796875 16.28125 27.152344 14.511719 27.804688 C 13.328125 28.292969 12.324219 29.019531 11.5 29.980469 C 11.375 29.980469 11.25 29.980469 11.128906 29.980469 C 11.03125 29.929688 10.976562 29.847656 10.960938 29.734375 C 11.308594 28.210938 12.003906 26.871094 13.046875 25.710938 C 14.261719 24.378906 15.714844 23.382812 17.402344 22.722656 C 16.023438 22.828125 14.730469 23.222656 13.523438 23.902344 C 12.257812 24.570312 11.164062 25.441406 10.238281 26.523438 C 10.054688 26.789062 9.867188 27.054688 9.683594 27.316406 C 8.128906 27.324219 6.589844 27.203125 5.058594 26.953125 C 2.59375 26.421875 1.003906 24.964844 0.289062 22.582031 C 0.140625 22.027344 0.0390625 21.472656 -0.0195312 20.914062 C -0.0195312 20.414062 -0.0195312 19.910156 -0.0195312 19.410156 C 0.46875 16.511719 1.191406 13.667969 2.148438 10.875 C 2.804688 8.941406 3.523438 7.03125 4.292969 5.140625 C 4.988281 3.527344 6.121094 2.3125 7.699219 1.503906 C 9.328125 0.707031 11.046875 0.246094 12.863281 0.121094 C 13.75 0.0703125 14.628906 0.0195312 15.503906 -0.0195312 Z M 15.503906 5.304688 C 16.792969 5.300781 18.070312 5.386719 19.34375 5.570312 C 20.042969 5.984375 20.441406 6.59375 20.542969 7.398438 C 19.550781 11.640625 18.238281 15.777344 16.597656 19.816406 C 16.148438 20.707031 15.464844 21.363281 14.554688 21.789062 C 13.605469 21.953125 12.648438 22.039062 11.683594 22.054688 C 10.824219 22.058594 9.992188 21.914062 9.1875 21.625 C 8.554688 21.40625 8.203125 20.964844 8.132812 20.304688 C 8.105469 20.019531 8.105469 19.734375 8.132812 19.453125 C 8.914062 15.972656 9.917969 12.558594 11.148438 9.207031 C 11.441406 8.4375 11.757812 7.679688 12.097656 6.929688 C 12.539062 6.257812 13.148438 5.800781 13.933594 5.570312 C 14.457031 5.441406 14.980469 5.351562 15.503906 5.304688 Z M 15.503906 5.304688 "/>
</g>
</defs>
<g id="surface1">
<use xlink:href="#surface5" mask="url(#mask0)"/>
</g>
</svg>
