<?xml version="1.0" encoding="UTF-8"?>
<svg xmlns="http://www.w3.org/2000/svg" xmlns:xlink="http://www.w3.org/1999/xlink" width="32px" height="30px" viewBox="0 0 31 30" version="1.1">
<defs>
<filter id="alpha" filterUnits="objectBoundingBox" x="0%" y="0%" width="100%" height="100%">
  <feColorMatrix type="matrix" in="SourceGraphic" values="0 0 0 0 1 0 0 0 0 1 0 0 0 0 1 0 0 0 1 0"/>
</filter>
<mask id="mask0">
  <g filter="url(#alpha)">
<rect x="0" y="0" width="31" height="30" style="fill:rgb(0%,0%,0%);fill-opacity:0.996078;stroke:none;"/>
  </g>
</mask>
<clipPath id="clip1">
  <rect x="0" y="0" width="31" height="30"/>
</clipPath>
<g id="surface5" clip-path="url(#clip1)">
<path style=" stroke:none;fill-rule:evenodd;fill:rgb(18.823529%,55.686275%,82.352941%);fill-opacity:1;" d="M 15.019531 -0.0195312 C 16.140625 -0.0195312 17.261719 -0.0195312 18.378906 -0.0195312 C 20.128906 0.0078125 21.863281 0.21875 23.578125 0.609375 C 24.886719 0.902344 26.011719 1.519531 26.960938 2.460938 C 27.742188 3.363281 28.136719 4.417969 28.140625 5.628906 C 27.402344 11.125 26.003906 16.433594 23.941406 21.566406 C 26.285156 21.605469 28.632812 21.621094 30.980469 21.605469 C 30.980469 21.621094 30.980469 21.632812 30.980469 21.644531 C 30.457031 23.332031 29.949219 25.023438 29.460938 26.726562 C 26.101562 26.722656 22.738281 26.726562 19.378906 26.746094 C 17.546875 26.796875 15.773438 27.152344 14.058594 27.804688 C 12.910156 28.292969 11.9375 29.019531 11.140625 29.980469 C 11.019531 29.980469 10.898438 29.980469 10.78125 29.980469 C 10.6875 29.929688 10.632812 29.847656 10.621094 29.734375 C 10.957031 28.210938 11.628906 26.871094 12.640625 25.710938 C 13.816406 24.378906 15.222656 23.382812 16.859375 22.722656 C 15.523438 22.828125 14.269531 23.222656 13.101562 23.902344 C 11.875 24.570312 10.816406 25.441406 9.921875 26.523438 C 9.738281 26.789062 9.558594 27.054688 9.378906 27.316406 C 7.875 27.324219 6.382812 27.203125 4.898438 26.953125 C 2.511719 26.421875 0.972656 24.964844 0.28125 22.582031 C 0.136719 22.027344 0.0351562 21.472656 -0.0195312 20.914062 C -0.0195312 20.414062 -0.0195312 19.910156 -0.0195312 19.410156 C 0.453125 16.511719 1.152344 13.667969 2.078125 10.875 C 2.71875 8.941406 3.410156 7.03125 4.160156 5.140625 C 4.832031 3.527344 5.929688 2.3125 7.460938 1.503906 C 9.035156 0.707031 10.703125 0.246094 12.460938 0.121094 C 13.320312 0.0703125 14.171875 0.0195312 15.019531 -0.0195312 Z M 15.019531 5.304688 C 16.265625 5.300781 17.507812 5.386719 18.738281 5.570312 C 19.414062 5.984375 19.800781 6.59375 19.898438 7.398438 C 18.941406 11.640625 17.667969 15.777344 16.078125 19.816406 C 15.644531 20.707031 14.984375 21.363281 14.101562 21.789062 C 13.179688 21.953125 12.253906 22.039062 11.320312 22.054688 C 10.488281 22.058594 9.679688 21.914062 8.898438 21.625 C 8.289062 21.40625 7.949219 20.964844 7.878906 20.304688 C 7.851562 20.019531 7.851562 19.734375 7.878906 19.453125 C 8.632812 15.972656 9.609375 12.558594 10.800781 9.207031 C 11.085938 8.4375 11.390625 7.679688 11.71875 6.929688 C 12.144531 6.257812 12.738281 5.800781 13.5 5.570312 C 14.003906 5.441406 14.511719 5.351562 15.019531 5.304688 Z M 15.019531 5.304688 "/>
</g>
</defs>
<g id="surface1">
<use xlink:href="#surface5" mask="url(#mask0)"/>
</g>
</svg>
