<?xml version="1.0" encoding="UTF-8"?>
<!DOCTYPE svg PUBLIC "-//W3C//DTD SVG 1.1//EN" "http://www.w3.org/Graphics/SVG/1.1/DTD/svg11.dtd">
<svg xmlns="http://www.w3.org/2000/svg" version="1.1" width="900px" height="858px" style="shape-rendering:geometricPrecision; text-rendering:geometricPrecision; image-rendering:optimizeQuality; fill-rule:evenodd; clip-rule:evenodd" xmlns:xlink="http://www.w3.org/1999/xlink">
<g><path style="opacity:0.996" fill="#fefefe" d="M 421.5,-0.5 C 464.5,-0.5 507.5,-0.5 550.5,-0.5C 600.87,0.840495 650.537,8.00716 699.5,21C 733.696,30.837 762.863,48.6703 787,74.5C 809.977,103.046 819.977,135.712 817,172.5C 793.879,325.678 753.379,474.012 695.5,617.5C 763.5,617.5 831.5,617.5 899.5,617.5C 899.5,618.5 899.5,619.5 899.5,620.5C 885.202,665.57 871.369,710.903 858,756.5C 857.421,759.588 856.087,762.255 854,764.5C 767.903,763.335 681.737,763.168 595.5,764C 538.953,763.174 483.619,770.84 429.5,787C 386.961,800.426 351.294,823.926 322.5,857.5C 319.833,857.5 317.167,857.5 314.5,857.5C 311.622,855.78 309.622,853.28 308.5,850C 318.157,808.519 336.657,771.686 364,739.5C 399.112,698.39 441.946,668.224 492.5,649C 450.601,652.077 411.601,664.41 375.5,686C 343.498,703.942 315.332,726.775 291,754.5C 284.464,763.071 278.297,771.905 272.5,781C 243.47,780.632 214.47,779.299 185.5,777C 73.5554,769.217 11.5554,709.717 -0.5,598.5C -0.5,583.833 -0.5,569.167 -0.5,554.5C 12.152,477.556 30.652,401.889 55,327.5C 74.3649,268.068 95.6982,209.401 119,151.5C 138.06,103.185 170.56,67.0182 216.5,43C 262.457,20.0093 311.124,6.67599 362.5,3C 382.322,1.79368 401.989,0.627013 421.5,-0.5 Z M 434.5,151.5 C 469.254,151.584 503.921,153.417 538.5,157C 554.886,163.051 566.386,174.218 573,190.5C 577.019,199.109 578.353,208.109 577,217.5C 548.768,336.859 512.102,453.526 467,567.5C 454.859,591.641 436.692,609.808 412.5,622C 406.944,623.806 401.278,625.139 395.5,626C 373.215,628.24 350.882,629.74 328.5,630.5C 304.062,630.649 280.395,626.483 257.5,618C 240.072,611.567 230.572,599.067 229,580.5C 228.333,572.167 228.333,563.833 229,555.5C 251.194,454.921 279.861,356.254 315,259.5C 323.057,239.053 331.39,218.719 340,198.5C 352.006,178.732 369.173,165.565 391.5,159C 405.767,155.323 420.101,152.823 434.5,151.5 Z"/></g>
</svg>
