<?xml version="1.0" encoding="UTF-8"?>
<!DOCTYPE svg PUBLIC "-//W3C//DTD SVG 1.1//EN" "http://www.w3.org/Graphics/SVG/1.1/DTD/svg11.dtd">
<svg xmlns="http://www.w3.org/2000/svg" version="1.1" width="775px" height="738px" style="shape-rendering:geometricPrecision; text-rendering:geometricPrecision; image-rendering:optimizeQuality; fill-rule:evenodd; clip-rule:evenodd" xmlns:xlink="http://www.w3.org/1999/xlink">
<g><path style="opacity:0.995" fill="#308dd1" d="M 375.5,-0.5 C 403.5,-0.5 431.5,-0.5 459.5,-0.5C 503.216,0.228898 546.55,5.39556 589.5,15C 622.128,22.2251 650.294,37.3918 674,60.5C 693.569,82.6929 703.402,108.693 703.5,138.5C 685.051,273.631 650.051,404.298 598.5,530.5C 657.163,531.5 715.83,531.833 774.5,531.5C 774.5,531.833 774.5,532.167 774.5,532.5C 761.388,573.929 748.721,615.596 736.5,657.5C 652.499,657.333 568.499,657.5 484.5,658C 438.678,659.247 394.345,667.914 351.5,684C 322.795,696.004 298.462,713.838 278.5,737.5C 275.5,737.5 272.5,737.5 269.5,737.5C 267.2,736.256 265.866,734.256 265.5,731.5C 273.912,694.006 290.745,661.006 316,632.5C 345.419,599.711 380.586,575.211 421.5,559C 388.044,561.595 356.71,571.262 327.5,588C 296.902,604.391 270.402,625.891 248,652.5C 243.5,659 239,665.5 234.5,672C 196.915,672.151 159.582,669.151 122.5,663C 62.8208,649.989 24.3208,614.156 7,555.5C 3.40036,541.889 0.900357,528.222 -0.5,514.5C -0.5,502.167 -0.5,489.833 -0.5,477.5C 11.3175,406.23 28.8175,336.23 52,267.5C 67.9564,219.961 85.2898,172.961 104,126.5C 120.769,86.7331 148.269,56.8997 186.5,37C 225.872,17.4061 267.538,6.07277 311.5,3C 332.984,1.68441 354.318,0.517745 375.5,-0.5 Z M 375.5,130.5 C 406.687,130.394 437.687,132.561 468.5,137C 485.377,147.237 495.044,162.237 497.5,182C 473.503,286.321 441.67,388.154 402,487.5C 391.086,509.415 374.586,525.581 352.5,536C 329.529,540.012 306.362,542.178 283,542.5C 262.196,542.616 242.029,539.116 222.5,532C 207.2,526.592 198.7,515.759 197,499.5C 196.333,492.5 196.333,485.5 197,478.5C 215.869,392.895 240.202,308.895 270,226.5C 277.114,207.605 284.781,188.939 293,170.5C 303.641,153.913 318.474,142.746 337.5,137C 350.145,133.84 362.812,131.674 375.5,130.5 Z"/></g>
</svg>
